<svg width="32" height="32" viewBox="0 0 32 32" fill="none" xmlns="http://www.w3.org/2000/svg">
<rect width="32" height="32" rx="16" fill="#111A30"/>
<path d="M16 13.5C15.5056 13.5 15.0222 13.6466 14.6111 13.9213C14.2 14.196 13.8795 14.5865 13.6903 15.0433C13.5011 15.5001 13.4516 16.0028 13.548 16.4877C13.6445 16.9727 13.8826 17.4181 14.2322 17.7678C14.5819 18.1174 15.0273 18.3555 15.5123 18.452C15.9972 18.5484 16.4999 18.4989 16.9567 18.3097C17.4135 18.1205 17.804 17.8 18.0787 17.3889C18.3534 16.9778 18.5 16.4945 18.5 16C18.498 15.3376 18.234 14.7028 17.7656 14.2344C17.2972 13.766 16.6624 13.502 16 13.5ZM21.3975 16C21.3962 16.2336 21.3791 16.4668 21.3463 16.6981L22.8678 17.8894C22.9341 17.9441 22.9787 18.0206 22.9938 18.1052C23.0089 18.1898 22.9933 18.277 22.95 18.3512L21.5106 20.8363C21.4669 20.9098 21.3986 20.9656 21.3178 20.9938C21.2369 21.0219 21.1488 21.0207 21.0688 20.9903L19.2797 20.2716C18.9072 20.5584 18.4995 20.7965 18.0666 20.98L17.7991 22.8794C17.7841 22.9645 17.74 23.0417 17.6744 23.0979C17.6088 23.1541 17.5257 23.1858 17.4394 23.1875H14.5606C14.4758 23.1858 14.3941 23.1555 14.3288 23.1014C14.2634 23.0473 14.2184 22.9727 14.2009 22.8897L13.9334 20.9903C13.4993 20.8089 13.0914 20.5705 12.7203 20.2812L10.9313 21C10.8513 21.0304 10.7631 21.0317 10.6823 21.0036C10.6015 20.9755 10.5332 20.9198 10.4894 20.8462L9.05 18.3616C9.00668 18.2873 8.99116 18.2001 9.00621 18.1155C9.02127 18.0309 9.06592 17.9544 9.13219 17.8997L10.6538 16.7084C10.6213 16.4737 10.6042 16.237 10.6025 16C10.6038 15.7664 10.6209 15.5332 10.6538 15.3019L9.13219 14.1106C9.06592 14.0559 9.02127 13.9794 9.00621 13.8948C8.99116 13.8102 9.00668 13.723 9.05 13.6487L10.4894 11.1637C10.5331 11.0902 10.6014 11.0344 10.6823 11.0062C10.7631 10.978 10.8512 10.9793 10.9313 11.0097L12.7203 11.7284C13.0929 11.4416 13.5005 11.2035 13.9334 11.02L14.2009 9.12063C14.2159 9.03555 14.26 8.95831 14.3256 8.90211C14.3912 8.84591 14.4743 8.81423 14.5606 8.8125H17.4394C17.5242 8.81415 17.6059 8.8445 17.6712 8.89859C17.7366 8.95268 17.7816 9.02731 17.7991 9.11031L18.0666 11.0097C18.5012 11.1909 18.9097 11.4294 19.2813 11.7188L21.0688 11C21.1487 10.9696 21.2369 10.9683 21.3177 10.9964C21.3985 11.0245 21.4668 11.0802 21.5106 11.1537L22.95 13.6388C22.9933 13.713 23.0089 13.8002 22.9938 13.8848C22.9787 13.9694 22.9341 14.0459 22.8678 14.1006L21.3463 15.2919C21.3787 15.5266 21.3958 15.7631 21.3975 16Z" fill="white"/>
</svg>
